<svg viewBox="0 0 1200 680" xmlns="http://www.w3.org/2000/svg" font-family="Segoe UI, PingFang SC, Microsoft YaHei, sans-serif">
  <title>3.4 松弛之后：求解器看到了什么</title>
  <desc>CP-SAT 求解器输入：变量、约束、目标函数（添加松弛变量后）</desc>
  <defs>
    <linearGradient id="bg4" x1="0" y1="0" x2="1" y2="1">
      <stop offset="0%" stop-color="#0f172a"/><stop offset="100%" stop-color="#1e293b"/>
    </linearGradient>
    <filter id="shadow4" x="-10%" y="-10%" width="120%" height="130%">
      <feDropShadow dx="0" dy="4" stdDeviation="8" flood-color="#000" flood-opacity="0.3"/>
    </filter>
    <pattern id="grid4" width="20" height="20" patternUnits="userSpaceOnUse">
      <path d="M 20 0 L 0 0 0 20" fill="none" stroke="#1e293b" stroke-width="0.5"/>
    </pattern>
  </defs>
  <rect width="1200" height="680" fill="url(#bg4)"/>
  <rect width="1200" height="680" fill="url(#grid4)" opacity="0.5"/>

  <text x="600" y="42" text-anchor="middle" font-size="22" font-weight="700" fill="#f1f5f9" letter-spacing="1">3.4 松弛之后：求解器看到了什么</text>
  <line x1="150" y1="58" x2="1050" y2="58" stroke="#334155" stroke-width="1.5"/>

  <rect x="480" y="66" width="240" height="28" rx="14" fill="#3b82f6"/>
  <text x="600" y="85" text-anchor="middle" font-size="13" font-weight="700" fill="white">CP-SAT 求解器输入</text>

  <g transform="translate(60,110)">
    <rect x="0" y="0" width="360" height="460" rx="14" fill="#1e293b" stroke="#334155" stroke-width="1.5" filter="url(#shadow4)"/>
    <rect x="0" y="0" width="360" height="44" rx="14" fill="#334155"/>
    <rect x="0" y="14" width="360" height="30" fill="#334155"/>
    <text x="180" y="28" text-anchor="middle" font-size="14" font-weight="700" fill="#f1f5f9">变量</text>

    <rect x="20" y="60" width="320" height="52" rx="8" fill="#fef3c7" stroke="#fcd34d" stroke-width="2"/>
    <text x="40" y="82" font-size="12" font-weight="700" fill="#92400e">A</text>
    <text x="100" y="82" font-size="18" font-weight="700" fill="#78350f">= 6</text>
    <text x="40" y="102" font-size="11" fill="#b45309">用户输入（固定）</text>

    <rect x="20" y="122" width="320" height="52" rx="8" fill="#1e3a5f" stroke="#3b82f6" stroke-width="1"/>
    <text x="40" y="144" font-size="12" font-weight="700" fill="#93c5fd">B</text>
    <text x="100" y="144" font-size="18" font-weight="700" fill="#60a5fa">[ 0 , 5 ]</text>
    <text x="40" y="164" font-size="11" fill="#64748b">整数变量</text>

    <rect x="20" y="184" width="320" height="52" rx="8" fill="#1e3a5f" stroke="#3b82f6" stroke-width="1"/>
    <text x="40" y="206" font-size="12" font-weight="700" fill="#93c5fd">C</text>
    <text x="100" y="206" font-size="18" font-weight="700" fill="#60a5fa">[ 0 , 5 ]</text>
    <text x="40" y="226" font-size="11" fill="#64748b">整数变量</text>

    <line x1="20" y1="250" x2="340" y2="250" stroke="#334155" stroke-width="1" stroke-dasharray="4,3"/>
    <text x="180" y="265" text-anchor="middle" font-size="11" fill="#64748b">松弛开关（均为二进制）</text>

    <g transform="translate(20,275)">
      <rect x="0" y="0" width="150" height="38" rx="8" fill="#1e3a5f" stroke="#334155"/>
      <text x="15" y="24" font-size="12" font-weight="700" fill="#94a3b8">r1</text>
      <rect x="90" y="10" width="45" height="18" rx="9" fill="#334155"/>
      <circle cx="96" cy="19" r="6" fill="#64748b"/>
      <text x="142" y="24" font-size="11" fill="#64748b">=0</text>
    </g>
    <g transform="translate(170,275)">
      <rect x="0" y="0" width="150" height="38" rx="8" fill="#1e3a5f" stroke="#334155"/>
      <text x="15" y="24" font-size="12" font-weight="700" fill="#94a3b8">r2</text>
      <rect x="90" y="10" width="45" height="18" rx="9" fill="#334155"/>
      <circle cx="96" cy="19" r="6" fill="#64748b"/>
      <text x="142" y="24" font-size="11" fill="#64748b">=0</text>
    </g>
    <g transform="translate(20,323)">
      <rect x="0" y="0" width="150" height="38" rx="8" fill="#1e3a5f" stroke="#334155"/>
      <text x="15" y="24" font-size="12" font-weight="700" fill="#94a3b8">r3</text>
      <rect x="90" y="10" width="45" height="18" rx="9" fill="#334155"/>
      <circle cx="96" cy="19" r="6" fill="#64748b"/>
      <text x="142" y="24" font-size="11" fill="#64748b">=0</text>
    </g>
    <g transform="translate(170,323)">
      <rect x="0" y="0" width="150" height="38" rx="8" fill="#450a0a" stroke="#ef4444" stroke-width="2"/>
      <text x="15" y="24" font-size="12" font-weight="700" fill="#fca5a5">r4</text>
      <rect x="90" y="10" width="45" height="18" rx="9" fill="#ef4444"/>
      <circle cx="129" cy="19" r="6" fill="white"/>
      <text x="142" y="24" font-size="11" fill="#ef4444" font-weight="700">=1</text>
    </g>
    <g transform="translate(20,371)">
      <rect x="0" y="0" width="150" height="38" rx="8" fill="#1e3a5f" stroke="#334155"/>
      <text x="15" y="24" font-size="12" font-weight="700" fill="#94a3b8">r5</text>
      <rect x="90" y="10" width="45" height="18" rx="9" fill="#334155"/>
      <circle cx="96" cy="19" r="6" fill="#64748b"/>
      <text x="142" y="24" font-size="11" fill="#64748b">=0</text>
    </g>
    <rect x="20" y="420" width="320" height="28" rx="6" fill="#1e3a5f" stroke="#334155"/>
    <text x="180" y="438" text-anchor="middle" font-size="12" fill="#94a3b8">sum = r1+r2+r3+r4+r5 = 0+0+0+1+0 = </text>
    <text x="320" y="438" text-anchor="middle" font-size="14" font-weight="700" fill="#fbbf24">1</text>
  </g>

  <g transform="translate(440,110)">
    <rect x="0" y="0" width="360" height="460" rx="14" fill="#1e293b" stroke="#334155" stroke-width="1.5" filter="url(#shadow4)"/>
    <rect x="0" y="0" width="360" height="44" rx="14" fill="#334155"/>
    <rect x="0" y="14" width="360" height="30" fill="#334155"/>
    <text x="180" y="28" text-anchor="middle" font-size="14" font-weight="700" fill="#f1f5f9">约束</text>

    <text x="20" y="70" font-size="11" fill="#64748b">代入 A=6 后的约束：</text>

    <text x="20" y="100" font-size="12" fill="#60a5fa">C1：  6 + B ≥ 8 - 100*r1</text>
    <text x="20" y="118" font-size="11" fill="#475569">→ B ≥ 2 - 100*r1</text>

    <text x="20" y="150" font-size="12" fill="#60a5fa">C2：  C ≤ 3 + 100*r2</text>

    <text x="20" y="200" font-size="12" fill="#fca5a5">C3：  6 + B + C ≤ 8 + 100*r4</text>
    <text x="20" y="218" font-size="11" fill="#fca5a5">→ B + C ≤ 2 + 100*r4</text>
    <rect x="240" y="185" width="100" height="28" rx="6" fill="#450a0a" stroke="#ef4444"/>
    <text x="290" y="204" text-anchor="middle" font-size="11" fill="#ef4444" font-weight="700">r4=1 时</text>
    <text x="290" y="220" text-anchor="middle" font-size="11" fill="#ef4444">B+C ≤ 102</text>

    <text x="20" y="265" font-size="12" fill="#94a3b8">C4：  (B &gt; 3 → 6 ≤ 4) + 松弛</text>
    <text x="20" y="283" font-size="11" fill="#64748b">→ 当 A=6 时，B ≤ 3</text>

    <text x="20" y="325" font-size="12" fill="#94a3b8">C5：  (6 &gt; 4 → C ≥ 2) + 松弛</text>
    <text x="20" y="343" font-size="11" fill="#64748b">→ C ≥ 2（A=6 触发）</text>

    <line x1="0" y1="360" x2="360" y2="360" stroke="#334155" stroke-width="1" stroke-dasharray="4,3"/>
    <text x="20" y="380" font-size="11" fill="#64748b">第一步：尝试所有 ri = 0</text>
    <text x="20" y="396" font-size="11" fill="#ef4444">→ B+C ≤ 2  但  B ≥ 2, C ≥ 2</text>
    <text x="20" y="412" font-size="11" fill="#ef4444">→ B+C ≥ 4  → 不可行！</text>
    <text x="20" y="432" font-size="11" fill="#64748b">第二步：设 r4=1，其余=0</text>
    <text x="20" y="448" font-size="11" fill="#22c55e">→ B+C ≤ 102  → 满足！</text>
  </g>

  <g transform="translate(820,110)">
    <rect x="0" y="0" width="320" height="200" rx="14" fill="#1e293b" stroke="#334155" stroke-width="1.5" filter="url(#shadow4)"/>
    <rect x="0" y="0" width="320" height="44" rx="14" fill="#334155"/>
    <rect x="0" y="14" width="320" height="30" fill="#334155"/>
    <text x="160" y="28" text-anchor="middle" font-size="14" font-weight="700" fill="#fbbf24">目标函数</text>

    <text x="160" y="80" text-anchor="middle" font-size="20" fill="white" font-weight="700">minimize</text>
    <text x="160" y="115" text-anchor="middle" font-size="22" fill="#fbbf24" font-weight="700">( r1 + r2 + r3 + r4 + r5 )</text>
    <text x="160" y="145" text-anchor="middle" font-size="13" fill="#94a3b8">含权重：</text>
    <text x="160" y="168" text-anchor="middle" font-size="14" fill="#f1f5f9">minimize  (1*r1 + 1*r2 + 1*r3 + 1*r4 + 1*r5)</text>
    <text x="160" y="190" text-anchor="middle" font-size="12" fill="#64748b">所有权重 = 1（同等优先级）</text>
  </g>

  <g transform="translate(820,325)">
    <rect x="0" y="0" width="320" height="245" rx="14" fill="#052e16" stroke="#16a34a" stroke-width="2" filter="url(#shadow4)"/>
    <rect x="0" y="0" width="320" height="40" rx="14" fill="#14532d"/>
    <rect x="0" y="14" width="320" height="26" fill="#14532d"/>
    <text x="160" y="30" text-anchor="middle" font-size="14" font-weight="700" fill="#86efac">找到解</text>

    <text x="20" y="70" font-size="12" fill="#94a3b8">部分解：</text>
    <text x="20" y="98" font-size="18" font-weight="700" fill="#fbbf24">A = 6</text>
    <text x="120" y="98" font-size="18" font-weight="700" fill="#fbbf24">B = 2</text>
    <text x="220" y="98" font-size="18" font-weight="700" fill="#fbbf24">C = 2</text>

    <line x1="20" y1="112" x2="300" y2="112" stroke="#14532d" stroke-width="1"/>

    <text x="20" y="135" font-size="12" fill="#64748b">验证：</text>
    <text x="20" y="158" font-size="12" fill="#22c55e">规则1：  6+2 = 8 ≥ 8  [满足]</text>
    <text x="20" y="178" font-size="12" fill="#22c55e">规则2：  2 ≤ 3  [满足]</text>
    <text x="20" y="198" font-size="12" fill="#22c55e">规则3：  A&gt;4 → C≥2  [满足]</text>
    <text x="20" y="218" font-size="12" fill="#ef4444">规则4：  6+2+2 = 10 &gt; 8  [违反]</text>
    <text x="20" y="238" font-size="12" fill="#22c55e">规则5：  B≤3  [满足]</text>
  </g>

  <text x="600" y="665" text-anchor="middle" font-size="12" fill="#475569">求解器最小化 sum(ri) → 只放松 r4=1，找到部分可行解 A=6, B=2, C=2</text>
</svg>