<svg viewBox="0 0 1200 700" xmlns="http://www.w3.org/2000/svg" font-family="Segoe UI, PingFang SC, Microsoft YaHei, sans-serif">
  <title>3.2 从5条规则开始：逐步引入冲突</title>
  <desc>三阶段冲突升级：正常求解 - 用户输入A=6 - 规则4收紧导致无解</desc>
  <defs>
    <linearGradient id="bg2" x1="0" y1="0" x2="1" y2="1">
      <stop offset="0%" stop-color="#f8fafc"/><stop offset="100%" stop-color="#e2e8f0"/>
    </linearGradient>
    <filter id="shadow2" x="-10%" y="-10%" width="120%" height="130%">
      <feDropShadow dx="0" dy="3" stdDeviation="8" flood-color="#64748b" flood-opacity="0.15"/>
    </filter>
    <marker id="arrBlue" markerWidth="6" markerHeight="6" refX="5" refY="3" orient="auto">
      <path d="M0,0 L0,6 L6,3 z" fill="#3b82f6"/>
    </marker>
    <marker id="arrRed" markerWidth="6" markerHeight="6" refX="5" refY="3" orient="auto">
      <path d="M0,0 L0,6 L6,3 z" fill="#ef4444"/>
    </marker>
  </defs>
  <rect width="1200" height="700" fill="url(#bg2)"/>
  <text x="600" y="42" text-anchor="middle" font-size="22" font-weight="700" fill="#0f172a" letter-spacing="1">3.2 从5条规则开始：逐步引入冲突</text>
  <line x1="150" y1="58" x2="1050" y2="58" stroke="#cbd5e1" stroke-width="1.5"/>

  <!-- ===== Stage 1 ===== -->
  <g transform="translate(0,70)">
    <rect x="30" y="0" width="360" height="36" rx="18" fill="#3b82f6"/>
    <text x="210" y="24" text-anchor="middle" font-size="14" font-weight="700" fill="white">阶段一：正常求解</text>
    <rect x="30" y="50" width="360" height="220" rx="12" fill="white" stroke="#e2e8f0" stroke-width="1.5" filter="url(#shadow2)"/>
    <text x="50" y="76" font-size="12" font-weight="700" fill="#334155">5条规则（无用户输入）</text>
    <text x="50" y="100" font-size="12" fill="#475569">规则1：  A + B &gt;= 8</text>
    <text x="50" y="120" font-size="12" fill="#475569">规则2：  C &lt;= 3</text>
    <text x="50" y="140" font-size="12" fill="#475569">规则3：  A &gt; 4 → C &gt;= 2</text>
    <text x="50" y="160" font-size="12" fill="#475569">规则4：  A + B + C &lt;= 12</text>
    <text x="50" y="180" font-size="12" fill="#475569">规则5：  B &gt; 3 → A &lt;= 4</text>
    <rect x="50" y="198" width="320" height="58" rx="8" fill="#f0fdf4" stroke="#bbf7d0" stroke-width="1.5"/>
    <text x="70" y="222" font-size="12" font-weight="700" fill="#16a34a">求解器找到解：</text>
    <text x="70" y="242" font-size="13" fill="#15803d" font-weight="600">A=4，  B=4，  C=2</text>
    <rect x="130" y="282" width="160" height="36" rx="18" fill="#22c55e"/>
    <text x="210" y="305" text-anchor="middle" font-size="14" font-weight="700" fill="white">满足条件</text>
    <g transform="translate(90,340)">
      <g>
        <text x="20" y="0" font-size="11" fill="#1e40af" text-anchor="middle" font-weight="700">A</text>
        <rect x="8" y="6" width="24" height="36" rx="4" fill="#bfdbfe" stroke="#3b82f6" stroke-width="1.5"/>
        <rect x="11" y="12" width="6" height="6" rx="1" fill="#f59e0b"/>
        <rect x="19" y="12" width="6" height="6" rx="1" fill="#f59e0b"/>
        <rect x="14" y="20" width="6" height="6" rx="1" fill="#fbbf24"/>
        <rect x="11" y="28" width="6" height="6" rx="1" fill="#fcd34d"/>
        <rect x="19" y="28" width="6" height="6" rx="1" fill="#fcd34d"/>
        <text x="20" y="56" font-size="10" fill="#334155" text-anchor="middle">4</text>
      </g>
      <g transform="translate(60,0)">
        <text x="20" y="0" font-size="11" fill="#1e40af" text-anchor="middle" font-weight="700">B</text>
        <rect x="8" y="6" width="24" height="36" rx="4" fill="#bfdbfe" stroke="#3b82f6" stroke-width="1.5"/>
        <rect x="11" y="12" width="6" height="6" rx="1" fill="#f59e0b"/>
        <rect x="19" y="12" width="6" height="6" rx="1" fill="#f59e0b"/>
        <rect x="14" y="20" width="6" height="6" rx="1" fill="#fbbf24"/>
        <rect x="11" y="28" width="6" height="6" rx="1" fill="#fcd34d"/>
        <rect x="19" y="28" width="6" height="6" rx="1" fill="#fcd34d"/>
        <text x="20" y="56" font-size="10" fill="#334155" text-anchor="middle">4</text>
      </g>
      <g transform="translate(120,0)">
        <text x="20" y="0" font-size="11" fill="#1e40af" text-anchor="middle" font-weight="700">C</text>
        <rect x="8" y="6" width="24" height="36" rx="4" fill="#bfdbfe" stroke="#3b82f6" stroke-width="1.5"/>
        <rect x="14" y="12" width="6" height="6" rx="1" fill="#f59e0b"/>
        <rect x="11" y="20" width="6" height="6" rx="1" fill="#fbbf24"/>
        <text x="20" y="56" font-size="10" fill="#334155" text-anchor="middle">2</text>
      </g>
    </g>
  </g>

  <!-- ===== Arrow 1-2 ===== -->
  <!-- Arrow body: shorter, positioned higher to avoid overlapping with Stage2 header -->
  <line x1="395" y1="200" x2="450" y2="200" stroke="#3b82f6" stroke-width="1.5" marker-end="url(#arrBlue)"/>
  <!-- Label below the arrow -->
  <rect x="383" y="205" width="80" height="22" rx="4" fill="#3b82f6" opacity="0.9"/>
  <text x="423" y="220" text-anchor="middle" font-size="11" fill="white" font-weight="600">用户输入</text>
  <text x="423" y="234" text-anchor="middle" font-size="11" fill="#3b82f6" font-weight="600">A = 6</text>

  <!-- ===== Stage 2 ===== -->
  <g transform="translate(420,70)">
    <rect x="30" y="0" width="360" height="36" rx="18" fill="#f59e0b"/>
    <text x="210" y="24" text-anchor="middle" font-size="14" font-weight="700" fill="white">阶段二：用户输入 A=6</text>
    <rect x="30" y="50" width="360" height="270" rx="12" fill="white" stroke="#e2e8f0" stroke-width="1.5" filter="url(#shadow2)"/>
    <rect x="50" y="60" width="320" height="32" rx="6" fill="#fef3c7" stroke="#fcd34d" stroke-width="1.5"/>
    <text x="70" y="80" font-size="12" font-weight="700" fill="#92400e">用户输入：A = 6</text>
    <text x="50" y="108" font-size="12" fill="#475569">规则1：  A+B &gt;= 8 → B &gt;= 2</text>
    <text x="50" y="128" font-size="12" fill="#475569">规则2：  C &lt;= 3</text>
    <text x="50" y="148" font-size="12" fill="#7c3aed">规则3：  A&gt;4 → C &gt;= 2  （触发！）</text>
    <text x="50" y="168" font-size="12" fill="#475569">规则4：  A+B+C &lt;= 12 → B+C &lt;= 6</text>
    <text x="50" y="188" font-size="12" fill="#ef4444">规则5：  B&gt;3 → A&lt;=4  矛盾！</text>
    <rect x="50" y="204" width="320" height="52" rx="8" fill="#eff6ff" stroke="#bfdbfe" stroke-width="1.5"/>
    <text x="70" y="222" font-size="12" font-weight="600" fill="#1d4ed8">解读：A=6 为硬性输入</text>
    <text x="70" y="244" font-size="12" fill="#475569">→ 要满足规则5，必须 B &lt;= 3</text>
    <rect x="50" y="264" width="320" height="44" rx="8" fill="#f0fdf4" stroke="#bbf7d0" stroke-width="1"/>
    <text x="70" y="282" font-size="12" fill="#15803d">仍有解：A=6, B=2, C=2</text>
    <text x="70" y="300" font-size="11" fill="#16a34a">验证：6+2=8 ≥8 ✓  6+2+2=10 ≤12 ✓</text>
    <rect x="130" y="334" width="160" height="36" rx="18" fill="#22c55e"/>
    <text x="210" y="357" text-anchor="middle" font-size="13" font-weight="700" fill="white">有解</text>
  </g>

  <!-- ===== Arrow 2-3 ===== -->
  <line x1="795" y1="200" x2="850" y2="200" stroke="#ef4444" stroke-width="1.5" marker-end="url(#arrRed)"/>
  <rect x="783" y="205" width="80" height="22" rx="4" fill="#ef4444" opacity="0.9"/>
  <text x="823" y="220" text-anchor="middle" font-size="11" fill="white" font-weight="600">规则收紧</text>
  <text x="823" y="234" text-anchor="middle" font-size="11" fill="#ef4444" font-weight="600">规则4 改为 ≤8</text>

  <!-- ===== Stage 3 ===== -->
  <g transform="translate(810,70)">
    <rect x="30" y="0" width="360" height="36" rx="18" fill="#ef4444"/>
    <text x="210" y="24" text-anchor="middle" font-size="14" font-weight="700" fill="white">阶段三：规则4收紧 → 无解</text>
    <rect x="30" y="50" width="360" height="310" rx="12" fill="white" stroke="#e2e8f0" stroke-width="1.5" filter="url(#shadow2)"/>
    <rect x="50" y="60" width="320" height="30" rx="6" fill="#fef2f2" stroke="#fca5a5" stroke-width="1.5"/>
    <text x="70" y="80" font-size="12" font-weight="700" fill="#dc2626">规则4：  A + B + C &lt;= 8  （从 ≤12 收紧）</text>
    <text x="50" y="112" font-size="12" fill="#475569">A=6，  规则1：  B &gt;= 2</text>
    <text x="50" y="132" font-size="12" fill="#475569">规则2：  C &lt;= 3</text>
    <text x="50" y="152" font-size="12" fill="#7c3aed">规则3：  C &gt;= 2  （A=6 触发）</text>
    <text x="50" y="172" font-size="12" fill="#dc2626">规则4：  B + C &lt;= 2</text>
    <rect x="50" y="186" width="320" height="70" rx="8" fill="#fef2f2" stroke="#fca5a5" stroke-width="1.5"/>
    <text x="70" y="208" font-size="12" font-weight="700" fill="#dc2626">矛盾推导：</text>
    <text x="70" y="228" font-size="12" fill="#7f1d1d">B &gt;= 2  且  C &gt;= 2  →  B + C &gt;= 4</text>
    <text x="70" y="248" font-size="12" fill="#7f1d1d">但规则4：  B + C &lt;= 2</text>
    <text x="210" y="268" font-size="13" fill="#dc2626" text-anchor="middle" font-weight="700">4 &gt; 2  矛盾！不可能！</text>
    <text x="210" y="290" text-anchor="middle" font-size="14" fill="#64748b">"为什么无解？哪里出问题了？"</text>
    <rect x="130" y="374" width="160" height="36" rx="18" fill="#ef4444"/>
    <text x="210" y="397" text-anchor="middle" font-size="14" font-weight="700" fill="white">无解</text>
  </g>

  <!-- ===== Bottom bar ===== -->
  <rect x="200" y="625" width="800" height="60" rx="12" fill="#1e3a5f" filter="url(#shadow2)"/>
  <text x="600" y="652" text-anchor="middle" font-size="14" fill="white" font-weight="600">核心问题：哪条规则和哪条规则冲突？人工排查非常困难</text>
  <text x="600" y="674" text-anchor="middle" font-size="12" fill="#94a3b8">这就是配置引擎需要解决的冲突诊断问题</text>
</svg>