<svg viewBox="0 0 1200 680" xmlns="http://www.w3.org/2000/svg" font-family="Segoe UI, PingFang SC, Microsoft YaHei, sans-serif">
  <title>3.5 冲突诊断：从松弛结果读出哪些规则被绕过了</title>
  <desc>松弛结果、部分解、冲突诊断报告——松弛变量的核心价值</desc>
  <defs>
    <linearGradient id="bg5" x1="0" y1="0" x2="1" y2="1">
      <stop offset="0%" stop-color="#f8fafc"/><stop offset="100%" stop-color="#e2e8f0"/>
    </linearGradient>
    <filter id="shadow5" x="-10%" y="-10%" width="120%" height="130%">
      <feDropShadow dx="0" dy="4" stdDeviation="8" flood-color="#64748b" flood-opacity="0.15"/>
    </filter>
    <marker id="arrBlue5" markerWidth="6" markerHeight="6" refX="5" refY="3" orient="auto">
      <path d="M0,0 L0,6 L6,3 z" fill="#3b82f6"/>
    </marker>
  </defs>
  <rect width="1200" height="680" fill="url(#bg5)"/>

  <text x="600" y="42" text-anchor="middle" font-size="22" font-weight="700" fill="#0f172a" letter-spacing="1">3.5 冲突诊断：从松弛结果读出哪些规则被绕过了</text>
  <line x1="150" y1="58" x2="1050" y2="58" stroke="#cbd5e1" stroke-width="1.5"/>
  <text x="600" y="78" text-anchor="middle" font-size="13" fill="#64748b">从"无解"→"哪些规则冲突+部分可行解"→用户可操作的决策参考</text>

  <g transform="translate(50,100)">
    <rect x="0" y="0" width="340" height="340" rx="14" fill="white" stroke="#e2e8f0" stroke-width="1.5" filter="url(#shadow5)"/>
    <rect x="0" y="0" width="340" height="50" rx="14" fill="#3b82f6"/>
    <rect x="0" y="20" width="340" height="30" fill="#3b82f6"/>
    <text x="170" y="32" text-anchor="middle" font-size="15" font-weight="700" fill="white">松弛结果</text>

    <g transform="translate(20,65)">
      <rect x="0" y="0" width="300" height="36" rx="8" fill="#f0fdf4" stroke="#bbf7d0" stroke-width="1.5"/>
      <text x="15" y="24" font-size="14" font-weight="700" fill="#15803d">r1 = 0</text>
      <text x="100" y="24" font-size="13" fill="#475569">规则1：A+B ≥ 8</text>
      <circle cx="275" cy="18" r="10" fill="#22c55e"/>
      <text x="275" y="23" text-anchor="middle" font-size="14" fill="white">&#10003;</text>
    </g>
    <g transform="translate(20,111)">
      <rect x="0" y="0" width="300" height="36" rx="8" fill="#f0fdf4" stroke="#bbf7d0" stroke-width="1.5"/>
      <text x="15" y="24" font-size="14" font-weight="700" fill="#15803d">r2 = 0</text>
      <text x="100" y="24" font-size="13" fill="#475569">规则2：C ≤ 3</text>
      <circle cx="275" cy="18" r="10" fill="#22c55e"/>
      <text x="275" y="23" text-anchor="middle" font-size="14" fill="white">&#10003;</text>
    </g>
    <g transform="translate(20,157)">
      <rect x="0" y="0" width="300" height="36" rx="8" fill="#f0fdf4" stroke="#bbf7d0" stroke-width="1.5"/>
      <text x="15" y="24" font-size="14" font-weight="700" fill="#15803d">r3 = 0</text>
      <text x="100" y="24" font-size="13" fill="#475569">规则3：A&gt;4 → C≥2</text>
      <circle cx="275" cy="18" r="10" fill="#22c55e"/>
      <text x="275" y="23" text-anchor="middle" font-size="14" fill="white">&#10003;</text>
    </g>
    <g transform="translate(20,203)">
      <rect x="0" y="0" width="300" height="50" rx="8" fill="#fef2f2" stroke="#ef4444" stroke-width="2"/>
      <text x="15" y="24" font-size="14" font-weight="700" fill="#dc2626">r4 = 1</text>
      <text x="100" y="24" font-size="13" fill="#475569">规则4：A+B+C ≤ 8</text>
      <text x="15" y="42" font-size="11" fill="#fca5a5">被绕过 —— 约束已松弛</text>
      <circle cx="275" cy="18" r="10" fill="#ef4444"/>
      <text x="275" y="23" text-anchor="middle" font-size="14" fill="white">&#10007;</text>
    </g>
    <g transform="translate(20,263)">
      <rect x="0" y="0" width="300" height="36" rx="8" fill="#f0fdf4" stroke="#bbf7d0" stroke-width="1.5"/>
      <text x="15" y="24" font-size="14" font-weight="700" fill="#15803d">r5 = 0</text>
      <text x="100" y="24" font-size="13" fill="#475569">规则5：B&gt;3 → A≤4</text>
      <circle cx="275" cy="18" r="10" fill="#22c55e"/>
      <text x="275" y="23" text-anchor="middle" font-size="14" fill="white">&#10003;</text>
    </g>

    <rect x="20" y="315" width="300" height="20" rx="4" fill="#fef3c7"/>
    <text x="170" y="328" text-anchor="middle" font-size="12" fill="#92400e" font-weight="700">sum = 1（仅 r4 被松弛）</text>
  </g>

  <line x1="410" y1="270" x2="450" y2="270" stroke="#cbd5e1" stroke-width="2" marker-end="url(#arrBlue5)"/>

  <g transform="translate(470,100)">
    <rect x="0" y="0" width="340" height="340" rx="14" fill="white" stroke="#e2e8f0" stroke-width="1.5" filter="url(#shadow5)"/>
    <rect x="0" y="0" width="340" height="50" rx="14" fill="#059669"/>
    <rect x="0" y="20" width="340" height="30" fill="#059669"/>
    <text x="170" y="32" text-anchor="middle" font-size="15" font-weight="700" fill="white">部分解</text>

    <g transform="translate(50,70)">
      <g>
        <rect x="0" y="0" width="70" height="100" rx="10" fill="#fef3c7" stroke="#fcd34d" stroke-width="2"/>
        <text x="35" y="20" text-anchor="middle" font-size="14" font-weight="700" fill="#92400e">A</text>
        <rect x="15" y="28" width="40" height="55" rx="6" fill="#bfdbfe" stroke="#3b82f6" stroke-width="1.5"/>
        <rect x="19" y="35" width="8" height="8" rx="1" fill="#f59e0b"/>
        <rect x="29" y="35" width="8" height="8" rx="1" fill="#f59e0b"/>
        <rect x="39" y="35" width="8" height="8" rx="1" fill="#f59e0b"/>
        <rect x="19" y="45" width="8" height="8" rx="1" fill="#f59e0b"/>
        <rect x="29" y="45" width="8" height="8" rx="1" fill="#f59e0b"/>
        <rect x="39" y="45" width="8" height="8" rx="1" fill="#f59e0b"/>
        <rect x="24" y="55" width="8" height="8" rx="1" fill="#fbbf24"/>
        <rect x="24" y="65" width="8" height="8" rx="1" fill="#fcd34d"/>
        <text x="35" y="92" text-anchor="middle" font-size="18" font-weight="700" fill="#78350f">= 6</text>
        <text x="35" y="108" text-anchor="middle" font-size="10" fill="#b45309">用户输入</text>
      </g>
      <g transform="translate(85,0)">
        <rect x="0" y="0" width="70" height="100" rx="10" fill="#f0fdf4" stroke="#bbf7d0" stroke-width="1.5"/>
        <text x="35" y="20" text-anchor="middle" font-size="14" font-weight="700" fill="#15803d">B</text>
        <rect x="15" y="28" width="40" height="55" rx="6" fill="#bfdbfe" stroke="#3b82f6" stroke-width="1.5"/>
        <rect x="24" y="35" width="8" height="8" rx="1" fill="#f59e0b"/>
        <rect x="24" y="45" width="8" height="8" rx="1" fill="#fbbf24"/>
        <rect x="24" y="55" width="8" height="8" rx="1" fill="#fcd34d"/>
        <rect x="24" y="65" width="8" height="8" rx="1" fill="#fde68a"/>
        <rect x="24" y="75" width="8" height="8" rx="1" fill="#fef3c7"/>
        <text x="35" y="92" text-anchor="middle" font-size="18" font-weight="700" fill="#15803d">= 2</text>
        <text x="35" y="108" text-anchor="middle" font-size="10" fill="#16a34a">由规则1推导</text>
      </g>
      <g transform="translate(170,0)">
        <rect x="0" y="0" width="70" height="100" rx="10" fill="#f0fdf4" stroke="#bbf7d0" stroke-width="1.5"/>
        <text x="35" y="20" text-anchor="middle" font-size="14" font-weight="700" fill="#15803d">C</text>
        <rect x="15" y="28" width="40" height="55" rx="6" fill="#bfdbfe" stroke="#3b82f6" stroke-width="1.5"/>
        <rect x="24" y="35" width="8" height="8" rx="1" fill="#f59e0b"/>
        <rect x="24" y="45" width="8" height="8" rx="1" fill="#fbbf24"/>
        <rect x="24" y="55" width="8" height="8" rx="1" fill="#fcd34d"/>
        <rect x="24" y="65" width="8" height="8" rx="1" fill="#fde68a"/>
        <rect x="24" y="75" width="8" height="8" rx="1" fill="#fef3c7"/>
        <text x="35" y="92" text-anchor="middle" font-size="18" font-weight="700" fill="#15803d">= 2</text>
        <text x="35" y="108" text-anchor="middle" font-size="10" fill="#16a34a">由规则3推导</text>
      </g>
    </g>

    <rect x="20" y="200" width="300" height="44" rx="8" fill="#fef3c7" stroke="#fcd34d" stroke-width="1.5"/>
    <text x="170" y="222" text-anchor="middle" font-size="14" font-weight="700" fill="#92400e">总量 = 6 + 2 + 2 = 10</text>
    <text x="170" y="238" text-anchor="middle" font-size="12" fill="#b45309">超过规则4上限 8 → 规则4被松弛</text>

    <g transform="translate(20,260)">
      <text x="0" y="14" font-size="12" fill="#15803d">规则1：  8 ≥ 8  &#10003;</text>
      <text x="150" y="14" font-size="12" fill="#15803d">规则2：  2 ≤ 3  &#10003;</text>
      <text x="0" y="32" font-size="12" fill="#15803d">规则3：  C≥2    &#10003;</text>
      <text x="150" y="32" font-size="12" fill="#dc2626">规则4：  10 &gt; 8  &#10007;</text>
      <text x="0" y="50" font-size="12" fill="#15803d">规则5：  B≤3    &#10003;</text>
    </g>
  </g>

  <line x1="830" y1="270" x2="870" y2="270" stroke="#cbd5e1" stroke-width="2"/>

  <g transform="translate(890,100)">
    <rect x="0" y="0" width="260" height="340" rx="14" fill="#fef2f2" stroke="#ef4444" stroke-width="2" filter="url(#shadow5)"/>
    <rect x="0" y="0" width="260" height="50" rx="14" fill="#dc2626"/>
    <rect x="0" y="20" width="260" height="30" fill="#dc2626"/>
    <text x="130" y="32" text-anchor="middle" font-size="15" font-weight="700" fill="white">冲突诊断报告</text>

    <text x="20" y="75" font-size="12" font-weight="700" fill="#dc2626">冲突规则：</text>
    <rect x="20" y="85" width="220" height="50" rx="8" fill="white" stroke="#ef4444" stroke-width="1.5"/>
    <text x="35" y="105" font-size="14" font-weight="700" fill="#dc2626">规则4：A+B+C ≤ 8</text>
    <text x="35" y="125" font-size="11" fill="#7f1d1d">与用户输入 A=6 不兼容</text>

    <text x="20" y="158" font-size="12" font-weight="700" fill="#92400e">已应用的松弛：</text>
    <rect x="20" y="168" width="220" height="36" rx="8" fill="#fef3c7" stroke="#fcd34d" stroke-width="1.5"/>
    <text x="35" y="187" font-size="13" fill="#92400e">上限提高：8 → 10</text>
    <text x="35" y="200" font-size="11" fill="#b45309">规则4仍被约束，只是界限放宽</text>

    <text x="20" y="230" font-size="12" font-weight="700" fill="#334155">部分解：</text>
    <rect x="20" y="240" width="220" height="60" rx="8" fill="#f0fdf4" stroke="#bbf7d0" stroke-width="1.5"/>
    <text x="35" y="258" font-size="12" fill="#15803d">A = 6（用户输入）</text>
    <text x="35" y="274" font-size="12" fill="#15803d">B = 2（规则1推导）</text>
    <text x="35" y="290" font-size="12" fill="#15803d">C = 2（规则3推导）</text>
  </g>

  <rect x="50" y="460" width="1100" height="90" rx="14" fill="#1e3a5f" filter="url(#shadow5)"/>
  <text x="600" y="490" text-anchor="middle" font-size="14" font-weight="700" fill="white">用户决策：接下来怎么办？</text>

  <g transform="translate(130,505)">
    <rect x="0" y="0" width="400" height="36" rx="10" fill="#14532d" stroke="#16a34a" stroke-width="1.5"/>
    <text x="200" y="24" text-anchor="middle" font-size="13" font-weight="600" fill="#86efac">方案A：接受松弛后的配置</text>
    <text x="200" y="44" text-anchor="middle" font-size="11" fill="#64748b">"我知道规则4被放宽了，放心使用这个配置"</text>
  </g>
  <g transform="translate(570,505)">
    <rect x="0" y="0" width="400" height="36" rx="10" fill="#450a0a" stroke="#ef4444" stroke-width="1.5"/>
    <text x="200" y="24" text-anchor="middle" font-size="13" font-weight="600" fill="#fca5a5">方案B：调整输入以满足规则4</text>
    <text x="200" y="44" text-anchor="middle" font-size="11" fill="#64748b">"把 A 降到 4 或 5，严格遵守规则4"</text>
  </g>

  <text x="600" y="580" text-anchor="middle" font-size="13" fill="#334155" font-weight="600">核心价值："无解/有解"的二值问题 → 有价值的用户决策参考</text>
  <text x="600" y="600" text-anchor="middle" font-size="12" fill="#64748b">"哪些规则被绕过 + 部分可行解" 给用户提供可操作的决策依据</text>
  <text x="600" y="665" text-anchor="middle" font-size="12" fill="#94a3b8">部分解 (A=6, B=2, C=2) 保留了用户意图，同时揭示了取舍</text>
</svg>